<mxfile host="app.diagrams.net" agent="Mozilla/5.0 (Macintosh; Intel Mac OS X 10_15_7) AppleWebKit/537.36 (KHTML, like Gecko) Chrome/135.0.0.0 Safari/537.36" version="27.0.9">
  <diagram name="Secuencia Cancelar Reserva" id="cancelar-id">
    <mxGraphModel dx="1018" dy="570" grid="1" gridSize="10" guides="1" tooltips="1" connect="1" arrows="1" fold="1" page="1" pageScale="1" pageWidth="827" pageHeight="1169" math="0" shadow="0">
      <root>
        <mxCell id="0" />
        <mxCell id="1" parent="0" />
        <mxCell id="cliente" value="Cliente" style="shape=umlLifeline;" parent="1" vertex="1">
          <mxGeometry x="20" y="40" width="140" height="300" as="geometry" />
        </mxCell>
        <mxCell id="controller" value="ReservaController" style="shape=umlLifeline;" parent="1" vertex="1">
          <mxGeometry x="200" y="40" width="140" height="300" as="geometry" />
        </mxCell>
        <mxCell id="service" value="ReservaService" style="shape=umlLifeline;" parent="1" vertex="1">
          <mxGeometry x="400" y="40" width="140" height="300" as="geometry" />
        </mxCell>
        <mxCell id="repo" value="ReservaRepository" style="shape=umlLifeline;" parent="1" vertex="1">
          <mxGeometry x="600" y="40" width="140" height="300" as="geometry" />
        </mxCell>
        <mxCell id="msg1" value="cancelar(idReserva)" style="endArrow=block;" parent="1" source="cliente" target="controller" edge="1">
          <mxGeometry y="30" relative="1" as="geometry">
            <mxPoint x="170" y="80" as="targetPoint" />
            <mxPoint as="offset" />
          </mxGeometry>
        </mxCell>
        <mxCell id="msg2" value="cancelar(idReserva)" style="endArrow=block;" parent="1" source="controller" target="service" edge="1">
          <mxGeometry x="-0.3333" y="30" relative="1" as="geometry">
            <mxPoint x="370" y="110" as="targetPoint" />
            <mxPoint as="offset" />
          </mxGeometry>
        </mxCell>
        <mxCell id="msg3" value="deleteById(idReserva)" style="endArrow=block;" parent="1" source="service" target="repo" edge="1">
          <mxGeometry x="-0.3333" y="30" relative="1" as="geometry">
            <mxPoint x="570" y="140" as="targetPoint" />
            <mxPoint as="offset" />
          </mxGeometry>
        </mxCell>
        <mxCell id="ret1" value="reserva borrada" style="dashed=1;endArrow=none;" parent="1" source="repo" target="service" edge="1">
          <mxGeometry y="30" relative="1" as="geometry">
            <mxPoint x="430" y="170" as="targetPoint" />
            <mxPoint as="offset" />
          </mxGeometry>
        </mxCell>
        <mxCell id="ret2" value="reserva borrada" style="dashed=1;endArrow=none;" parent="1" source="service" target="controller" edge="1">
          <mxGeometry y="30" relative="1" as="geometry">
            <mxPoint x="230" y="200" as="targetPoint" />
            <mxPoint as="offset" />
          </mxGeometry>
        </mxCell>
        <mxCell id="ret3" value="reserva cancelada" style="dashed=1;endArrow=none;" parent="1" source="controller" target="cliente" edge="1">
          <mxGeometry y="30" relative="1" as="geometry">
            <mxPoint x="50" y="230" as="targetPoint" />
            <mxPoint as="offset" />
          </mxGeometry>
        </mxCell>
        <mxCell id="_j8DGNE3dfyAO-TtumHI-4" value="" style="html=1;verticalAlign=bottom;labelBackgroundColor=none;endArrow=open;endFill=0;dashed=1;rounded=0;" edge="1" parent="1">
          <mxGeometry width="160" relative="1" as="geometry">
            <mxPoint x="220" y="240" as="sourcePoint" />
            <mxPoint x="150" y="240" as="targetPoint" />
          </mxGeometry>
        </mxCell>
        <mxCell id="_j8DGNE3dfyAO-TtumHI-5" value="" style="html=1;verticalAlign=bottom;labelBackgroundColor=none;endArrow=open;endFill=0;dashed=1;rounded=0;" edge="1" parent="1">
          <mxGeometry width="160" relative="1" as="geometry">
            <mxPoint x="407" y="240" as="sourcePoint" />
            <mxPoint x="337" y="240" as="targetPoint" />
          </mxGeometry>
        </mxCell>
        <mxCell id="_j8DGNE3dfyAO-TtumHI-6" value="" style="html=1;verticalAlign=bottom;labelBackgroundColor=none;endArrow=open;endFill=0;dashed=1;rounded=0;" edge="1" parent="1">
          <mxGeometry width="160" relative="1" as="geometry">
            <mxPoint x="617" y="240" as="sourcePoint" />
            <mxPoint x="547" y="240" as="targetPoint" />
          </mxGeometry>
        </mxCell>
      </root>
    </mxGraphModel>
  </diagram>
</mxfile>
